<svg width="100" height="100" viewBox="0 0 100 100" fill="none" xmlns="http://www.w3.org/2000/svg">
<ellipse cx="50" cy="50" rx="50" ry="36" fill="url(#paint0_radial_6_2)"/>
<path d="M92 47.5C92 64.3447 73.196 78 50 78C26.804 78 8 64.3447 8 47.5C8 30.6553 26.804 17 50 17C73.196 17 92 30.6553 92 47.5Z" fill="url(#paint1_linear_6_2)"/>
<path d="M89 47C89 62.464 71.5391 75 50 75C28.4609 75 11 62.464 11 47C11 31.536 28.4609 19 50 19C71.5391 19 89 31.536 89 47Z" fill="url(#paint2_linear_6_2)" fill-opacity="0.9"/>
<ellipse cx="26" cy="51" rx="6" ry="3" fill="#E15528"/>
<ellipse cx="74" cy="41" rx="6" ry="3" fill="#E15528"/>
<ellipse cx="70" cy="52" rx="6" ry="3" fill="#E15528"/>
<ellipse cx="48" cy="51" rx="6" ry="3" fill="#E15528"/>
<ellipse cx="37" cy="64" rx="6" ry="3" fill="#E15528"/>
<ellipse cx="58" cy="65" rx="6" ry="3" fill="#E15528"/>
<ellipse cx="64" cy="29" rx="6" ry="3" fill="#E15528"/>
<ellipse cx="43" cy="28" rx="6" ry="3" fill="#E15528"/>
<ellipse cx="50" cy="38" rx="6" ry="3" fill="#E15528"/>
<ellipse cx="26" cy="37" rx="6" ry="3" fill="#E15528"/>
<defs>
<radialGradient id="paint0_radial_6_2" cx="0" cy="0" r="1" gradientUnits="userSpaceOnUse" gradientTransform="translate(50 50) rotate(90) scale(36 50)">
<stop offset="0.72" stop-color="#FFF1CC"/>
<stop offset="1" stop-color="#FFC122"/>
</radialGradient>
<linearGradient id="paint1_linear_6_2" x1="50" y1="17" x2="50" y2="78" gradientUnits="userSpaceOnUse">
<stop stop-color="#F90202"/>
<stop offset="1" stop-color="#A50505"/>
</linearGradient>
<linearGradient id="paint2_linear_6_2" x1="50" y1="19" x2="50" y2="75" gradientUnits="userSpaceOnUse">
<stop stop-color="white"/>
<stop offset="1" stop-color="#CDB2B2"/>
</linearGradient>
</defs>
</svg>
